<svg width="109" height="109" viewBox="0 0 109 109" fill="none" xmlns="http://www.w3.org/2000/svg">
<rect width="109" height="109" rx="20" fill="#FFE7D9"/>
<rect x="23.002" y="23.9185" width="52.3386" height="63.7689" rx="4.81275" fill="#A691C8"/>
<rect x="27.8154" y="28.1304" width="42.7131" height="54.745" rx="3.60956" fill="#FFF9F0"/>
<circle cx="37.1394" cy="39.2609" r="3.91036" fill="#A691C8" fill-opacity="0.4"/>
<circle cx="37.1394" cy="55.5041" r="3.91036" fill="#A691C8" fill-opacity="0.4"/>
<circle cx="37.1394" cy="71.7468" r="3.91036" fill="#A691C8" fill-opacity="0.4"/>
<rect x="48.269" y="37.7568" width="18.6494" height="3.60956" rx="1.80478" fill="#A691C8" fill-opacity="0.4"/>
<rect x="48.269" y="54" width="18.6494" height="3.60956" rx="1.80478" fill="#A691C8" fill-opacity="0.4"/>
<rect x="48.269" y="70.2432" width="18.6494" height="3.60956" rx="1.80478" fill="#A691C8" fill-opacity="0.4"/>
<path d="M36.2368 39.2609L38.944 41.6672L43.1551 36.8545" stroke="#92BF4A" stroke-width="1.80478" stroke-linecap="round"/>
<path d="M36.2368 55.8048L38.944 58.2112L43.1551 53.3984" stroke="#92BF4A" stroke-width="1.80478" stroke-linecap="round"/>
<path d="M36.2368 72.3488L38.944 74.7551L43.1551 69.9424" stroke="#92BF4A" stroke-width="1.80478" stroke-linecap="round"/>
<path d="M44.0566 21.2112C44.0566 18.8854 45.942 17 48.2678 17C50.5936 17 52.479 18.8854 52.479 21.2112V22.1135H44.0566L44.0566 21.2112Z" fill="#4E4B48"/>
<rect x="38.0405" y="22.1138" width="20.4542" height="7.21912" rx="1.20319" fill="#4E4B48"/>
<circle cx="48.2677" cy="20.3087" r="1.80478" fill="white"/>
<circle cx="72.0311" cy="77.158" r="15.3406" fill="#FB8E3D"/>
<path d="M71.73 69.6382V78.0605L77.1443 81.6701" stroke="white" stroke-width="1.80478" stroke-linecap="round"/>
</svg>
